<svg width="20" height="20" viewBox="0 0 20 20" fill="none" xmlns="http://www.w3.org/2000/svg">
<path d="M1.87586 11.3125C3.35049 11.3151 4.7872 10.8454 5.97549 9.97224L6.03224 9.93054L5.98409 9.87914C5.2252 9.06919 4.64239 8.11076 4.2724 7.06432L4.27241 7.06432L4.27202 7.06327C4.24586 6.9933 4.2339 6.91883 4.23683 6.84419C4.23976 6.76956 4.25753 6.69625 4.2891 6.62855C4.32067 6.56086 4.3654 6.50013 4.42069 6.4499C4.47598 6.39968 4.54072 6.36098 4.61113 6.33604C4.68155 6.31111 4.75622 6.30045 4.83079 6.30468C4.90537 6.30892 4.97835 6.32796 5.04548 6.36071C5.11262 6.39345 5.17256 6.43924 5.22181 6.4954C5.27106 6.55156 5.30863 6.61696 5.33233 6.6878L5.33232 6.6878L5.3327 6.68888C5.65588 7.59918 6.16614 8.43171 6.83061 9.13284L6.87603 9.18076L6.92139 9.13278C7.98771 8.00497 8.64384 6.55138 8.78431 5.00566L8.79051 4.9375H8.72207H1.87598C1.72679 4.9375 1.58372 4.87824 1.47823 4.77275C1.37274 4.66726 1.31348 4.52418 1.31348 4.375C1.31348 4.22582 1.37274 4.08274 1.47823 3.97725C1.58372 3.87176 1.72679 3.8125 1.87598 3.8125H6.25098H6.31348V3.75V2.5C6.31348 2.35082 6.37274 2.20774 6.47823 2.10225C6.58372 1.99676 6.72679 1.9375 6.87598 1.9375C7.02516 1.9375 7.16823 1.99676 7.27372 2.10225C7.37921 2.20774 7.43848 2.35082 7.43848 2.5V3.75V3.8125H7.50098H11.876C12.0252 3.8125 12.1682 3.87176 12.2737 3.97725C12.3792 4.08274 12.4385 4.22582 12.4385 4.375C12.4385 4.52418 12.3792 4.66726 12.2737 4.77275C12.1682 4.87824 12.0252 4.9375 11.876 4.9375H9.97676H9.91886L9.91444 4.99523C9.77479 6.81824 9.01758 8.53911 7.76786 9.87369L7.7197 9.92511L7.77649 9.96679C8.85969 10.7619 10.1505 11.2252 11.492 11.3007L11.533 11.303L11.5514 11.2662L13.2475 7.87327C13.2942 7.77985 13.366 7.70129 13.4549 7.64638C13.5437 7.59147 13.6461 7.56239 13.7506 7.56239C13.855 7.56239 13.9574 7.59147 14.0463 7.64638C14.1351 7.70129 14.2069 7.77985 14.2537 7.87327L18.6287 16.6233L18.6287 16.6233C18.6716 16.709 18.6919 16.8043 18.6876 16.9001C18.6833 16.9958 18.6546 17.0889 18.6043 17.1705C18.5539 17.2521 18.4835 17.3194 18.3998 17.3662C18.3161 17.4129 18.2218 17.4374 18.1259 17.4375C18.0214 17.4376 17.919 17.4085 17.8301 17.3536C17.7411 17.2988 17.6693 17.2202 17.6225 17.1267C17.6225 17.1267 17.6225 17.1267 17.6225 17.1267L16.5452 14.972L16.5279 14.9375H16.4893H11.0119H10.9733L10.956 14.972L9.87868 17.1267C9.87867 17.1267 9.87867 17.1267 9.87867 17.1267C9.81191 17.2602 9.69488 17.3616 9.55333 17.4087C9.41178 17.4559 9.25729 17.4449 9.12387 17.3781C8.99044 17.3113 8.88899 17.1943 8.84185 17.0527C8.79471 16.9112 8.80573 16.7567 8.8725 16.6233L8.8725 16.6233L10.9506 12.4678L10.9902 12.3886L10.9023 12.3778C9.44779 12.1991 8.06925 11.628 6.91446 10.7257L6.87589 10.6956L6.83738 10.7258C5.42237 11.8367 3.67499 12.4395 1.87605 12.4375H1.87598C1.72679 12.4375 1.58372 12.3782 1.47823 12.2727C1.37274 12.1673 1.31348 12.0242 1.31348 11.875C1.31348 11.7258 1.37274 11.5827 1.47823 11.4773C1.58369 11.3718 1.72672 11.3125 1.87586 11.3125ZM1.87586 11.3125L1.87598 11.25M1.87586 11.3125C1.8759 11.3125 1.87594 11.3125 1.87598 11.3125V11.25M1.87598 11.25C1.71022 11.25 1.55125 11.3158 1.43403 11.4331C1.31682 11.5503 1.25098 11.7092 1.25098 11.875C1.25098 12.0408 1.31682 12.1997 1.43403 12.3169C1.55125 12.4342 1.71022 12.5 1.87598 12.5M1.87598 11.25C3.31625 11.2526 4.72002 10.8005 5.88756 9.95893C5.88933 9.96083 5.8911 9.96272 5.89287 9.96461L5.93848 9.92188L5.90147 9.87151C5.89952 9.87294 5.89758 9.87437 5.89564 9.87579C5.15174 9.06936 4.57935 8.11996 4.21348 7.08516C4.18441 7.00742 4.17112 6.92467 4.17438 6.84174C4.17764 6.75881 4.19738 6.67736 4.23246 6.60214C4.26753 6.52692 4.31724 6.45944 4.37867 6.40364C4.4401 6.34784 4.51204 6.30483 4.59027 6.27713C4.66851 6.24942 4.75147 6.23758 4.83433 6.24228C4.9172 6.24699 4.99829 6.26815 5.07288 6.30453C5.14748 6.34092 5.21408 6.39179 5.2688 6.45419C5.32352 6.51659 5.36527 6.58926 5.3916 6.66797C5.70488 7.55038 6.19554 8.35903 6.83312 9.0442C6.83227 9.0451 6.83141 9.046 6.83056 9.04691L6.87598 9.08984L6.92134 9.04685C6.92049 9.04595 6.91964 9.04505 6.91878 9.04415C7.93599 7.94843 8.56717 6.55015 8.7161 5.0625H8.72207V5L8.65983 4.99434C8.65966 4.99623 8.65948 4.99811 8.65931 5H1.87598C1.71022 5 1.55125 4.93415 1.43403 4.81694C1.31682 4.69973 1.25098 4.54076 1.25098 4.375C1.25098 4.20924 1.31682 4.05027 1.43403 3.93306C1.55125 3.81585 1.71022 3.75 1.87598 3.75H6.18848H6.25098V3.6875V2.5C6.25098 2.33424 6.31682 2.17527 6.43403 2.05806C6.55125 1.94085 6.71022 1.875 6.87598 1.875C7.04174 1.875 7.20071 1.94085 7.31792 2.05806C7.43513 2.17527 7.50098 2.33424 7.50098 2.5V3.6875V3.75H7.56348H11.876C12.0417 3.75 12.2007 3.81585 12.3179 3.93306C12.4351 4.05027 12.501 4.20924 12.501 4.375C12.501 4.54076 12.4351 4.69973 12.3179 4.81694C12.2007 4.93415 12.0417 5 11.876 5H9.97676C9.83762 6.81627 9.09022 8.53194 7.85631 9.87031C7.85436 9.86888 7.85241 9.86745 7.85046 9.86602L7.81348 9.91641L7.8591 9.95913C7.86087 9.95723 7.86265 9.95534 7.86442 9.95344C8.92727 10.7187 10.187 11.1647 11.4955 11.2383L13.1916 7.84531C13.2435 7.74151 13.3233 7.65422 13.422 7.59321C13.5208 7.5322 13.6345 7.49989 13.7506 7.49989C13.8666 7.49989 13.9804 7.5322 14.0791 7.59321C14.1779 7.65422 14.2577 7.74151 14.3096 7.84531L1.87598 12.5M1.87598 12.5C3.68894 12.502 5.44993 11.8945 6.87598 10.775L1.87598 12.5ZM11.581 13.722L11.5358 13.8125H11.6369H15.8643H15.9654L15.9202 13.7221L13.8069 9.49471L13.751 9.3829L13.6951 9.4947L11.581 13.722Z" fill="#FDBD2A" stroke="#FDBD2A" stroke-width="0.125"/>
</svg>
